<svg xmlns="http://www.w3.org/2000/svg" width="21.479" height="20.215" viewBox="0 0 21.479 20.215">
  <g id="Group_2" data-name="Group 2" transform="translate(-700.152 -165)">
    <g id="Group_1" data-name="Group 1" transform="translate(700.152 165)">
      <path id="Path_1" data-name="Path 1" d="M706.44,182.9l-2.03,2.034a.737.737,0,0,1-.661.276.775.775,0,0,1-.319-.663c.011-.535,0-1.069,0-1.628l-.3-.019a8.059,8.059,0,0,1-1.168-.083,2.3,2.3,0,0,1-1.8-2.257c0-1.842.025-3.685-.01-5.527a2.4,2.4,0,0,1,2.386-2.411h.614v-4.569A3,3,0,0,1,706.2,165h12.436a2.971,2.971,0,0,1,2.975,2.867c.035,1.546.013,3.094.012,4.642,0,1.124.009,2.25-.016,3.374a2.988,2.988,0,0,1-2.59,2.724c-.5.04-1.01.029-1.515.041h-.328v2.526c0,.2.045.442-.2.529a.644.644,0,0,1-.683-.177c-.706-.692-1.4-1.4-2.1-2.1-.052-.05-.107-.1-.2-.183V180.5a2.368,2.368,0,0,1-1.886,2.341,2.9,2.9,0,0,1-.608.052q-2.378.007-4.757,0Zm9.852-2.84v-1.83c0-.4.176-.578.58-.582h1.54a3.663,3.663,0,0,0,.676-.031,2,2,0,0,0,1.645-2.01c0-2.514-.015-5.029.009-7.542a2.073,2.073,0,0,0-2.112-2.093q-6.2.005-12.39.006a2.354,2.354,0,0,0-.58.073,2.032,2.032,0,0,0-1.531,2.044q0,3.148.018,6.3c0,.438,0,.876.006,1.314a2.031,2.031,0,0,0,2.053,1.946c2.393-.02,4.787-.006,7.18-.007a1.1,1.1,0,0,1,.845.345c.661.678,1.339,1.344,2.061,2.068Zm-3.182-1.406h-6.641a6.873,6.873,0,0,1-.743-.043,3.012,3.012,0,0,1-2.574-2.855q0-.94,0-1.88c0-.08-.007-.159-.011-.251h-.613a1.385,1.385,0,0,0-1.393,1.417q0,2.719,0,5.436a1.3,1.3,0,0,0,1.1,1.373,6.592,6.592,0,0,0,1.419.045.7.7,0,0,1,.785.789c-.024.295,0,.592,0,.891l1.59-1.561c.1-.006.193-.016.289-.016h2.628c.952,0,1.9.007,2.854-.008a1.318,1.318,0,0,0,1.284-1.15c.05-.546.026-1.1.034-1.65-.006-.172-.008-.344-.008-.536Z" transform="translate(-700.152 -165)" fill="#fff"/>
    </g>
  </g>
</svg>
